<?xml version="1.0" standalone="no"?>
<!DOCTYPE svg PUBLIC "-//W3C//DTD SVG 20010904//EN"
 "http://www.w3.org/TR/2001/REC-SVG-20010904/DTD/svg10.dtd">
<svg version="1.0" xmlns="http://www.w3.org/2000/svg"
 width="700.000000pt" height="700.000000pt" viewBox="0 0 700.000000 700.000000"
 preserveAspectRatio="xMidYMid meet">

<g transform="translate(0.000000,700.000000) scale(0.100000,-0.100000)"
fill="#fbcb83" stroke="none">
<path d="M3300 6377 c-3 -3 -48 -8 -100 -12 -52 -3 -97 -8 -100 -10 -3 -2 -29
-6 -57 -9 -123 -14 -373 -75 -543 -133 -58 -19 -109 -39 -115 -43 -5 -4 -27
-13 -48 -20 -57 -18 -319 -151 -427 -216 -347 -209 -701 -552 -922 -894 -135
-210 -239 -423 -312 -640 -33 -100 -92 -328 -105 -412 -6 -38 -17 -98 -23
-135 -8 -44 -13 -169 -13 -353 0 -184 5 -309 13 -353 6 -37 17 -97 23 -135 13
-84 72 -312 105 -412 91 -270 249 -571 417 -790 94 -124 131 -166 251 -288
180 -185 375 -341 566 -456 108 -65 370 -198 427 -216 21 -7 43 -16 48 -20 6
-4 57 -24 115 -43 170 -58 420 -119 543 -133 28 -3 54 -7 57 -9 3 -2 48 -7
100 -12 181 -15 614 -8 705 12 11 3 38 7 60 10 178 21 438 89 647 170 97 38
337 153 423 203 211 122 411 278 601 467 88 88 176 181 195 206 19 25 60 80
92 122 59 80 129 186 179 272 61 105 188 373 188 396 0 5 4 17 10 27 17 32 76
223 99 322 109 466 109 854 0 1320 -7 34 -14 57 -39 145 -20 69 -51 159 -60
177 -6 10 -10 22 -10 27 0 23 -127 291 -188 396 -50 86 -120 192 -179 272 -32
42 -73 97 -92 122 -19 25 -107 118 -195 206 -190 189 -390 345 -601 467 -137
80 -416 206 -558 252 -146 48 -399 109 -502 121 -19 3 -140 18 -165 22 -46 6
-505 15 -510 10z m1627 -1632 c220 -42 409 -141 576 -304 102 -99 170 -194
232 -323 267 -557 36 -1226 -518 -1498 -255 -125 -538 -151 -803 -74 -451 130
-778 533 -816 1004 l-3 35 -101 3 -100 3 -12 -98 c-27 -233 -115 -433 -269
-617 -131 -157 -356 -296 -568 -353 -91 -24 -116 -27 -280 -27 -163 0 -189 3
-278 27 -387 104 -691 400 -801 779 -178 614 182 1249 801 1415 89 24 115 26
278 26 163 0 189 -2 278 -26 224 -60 444 -199 581 -366 106 -130 192 -295 230
-444 l13 -52 125 0 125 0 22 81 c112 407 443 717 856 804 114 24 320 26 432 5z"/>
<path d="M4588 4490 c-276 -50 -497 -223 -617 -482 -55 -118 -72 -194 -78
-339 -10 -239 55 -432 203 -613 99 -120 270 -226 428 -266 109 -27 274 -27
382 0 318 81 558 342 621 675 21 109 13 313 -16 410 -89 296 -305 516 -583
595 -82 24 -264 34 -340 20z" />
<path d="M2172 4479 c-329 -39 -612 -297 -698 -637 -34 -133 -34 -311 0 -444
72 -283 274 -508 539 -599 299 -103 612 -25 839 208 109 112 186 251 225 410
23 93 23 313 0 406 -106 428 -489 706 -905 656z"/>
</g>
<g transform="translate(0.000000,700.000000) scale(0.100000,-0.100000)"
fill="#7c4c05" stroke="none">
<path d="M4555 4750 c-385 -69 -672 -282 -839 -622 -30 -60 -64 -146 -76 -191
l-22 -82 -129 -1 c-116 -1 -129 1 -129 16 0 32 -51 175 -92 259 -56 114 -136
219 -245 321 -220 207 -512 313 -813 297 -279 -15 -514 -116 -714 -307 -170
-162 -265 -327 -324 -560 -22 -91 -26 -126 -26 -260 0 -134 4 -169 26 -260 60
-239 156 -401 336 -571 249 -234 620 -347 937 -286 240 47 429 142 589 296
205 199 313 415 348 699 l11 93 101 -3 101 -3 12 -90 c37 -260 135 -463 313
-648 282 -294 693 -409 1089 -305 336 87 622 340 751 662 72 179 101 370 81
534 -50 408 -279 740 -625 907 -120 58 -189 80 -326 105 -136 24 -202 24 -335
0z m373 -280 c181 -51 354 -176 461 -333 44 -64 97 -178 122 -262 29 -97 37
-301 16 -410 -63 -333 -303 -594 -621 -675 -108 -27 -273 -27 -382 0 -315 79
-552 336 -620 670 -20 102 -15 302 11 400 87 327 347 571 673 630 76 14 258 4
340 -20z m-2478 -7 c246 -51 475 -247 579 -498 51 -121 65 -195 65 -345 0
-150 -14 -224 -65 -346 -94 -226 -294 -412 -519 -483 -436 -138 -899 125
-1032 586 -20 67 -23 101 -23 243 0 142 3 176 23 243 79 274 279 490 536 578
142 49 274 56 436 22z"/>
</g>
</svg>
