<?xml version="1.0" standalone="no"?>
<!DOCTYPE svg PUBLIC "-//W3C//DTD SVG 20010904//EN"
 "http://www.w3.org/TR/2001/REC-SVG-20010904/DTD/svg10.dtd">
<svg version="1.0" xmlns="http://www.w3.org/2000/svg"
 width="700.000000pt" height="700.000000pt" viewBox="0 0 700.000000 700.000000"
 preserveAspectRatio="xMidYMid meet">

<g transform="translate(0.000000,700.000000) scale(0.100000,-0.100000)"
fill="#000000" stroke="none">
<path d="M4555 4750 c-385 -69 -672 -282 -839 -622 -30 -60 -64 -146 -76 -191
l-22 -82 -129 -1 c-116 -1 -129 1 -129 16 0 32 -51 175 -92 259 -56 114 -136
219 -245 321 -220 207 -512 313 -813 297 -279 -15 -514 -116 -714 -307 -170
-162 -265 -327 -324 -560 -22 -91 -26 -126 -26 -260 0 -134 4 -169 26 -260 60
-239 156 -401 336 -571 249 -234 620 -347 937 -286 240 47 429 142 589 296
205 199 313 415 348 699 l11 93 101 -3 101 -3 12 -90 c37 -260 135 -463 313
-648 282 -294 693 -409 1089 -305 336 87 622 340 751 662 72 179 101 370 81
534 -50 408 -279 740 -625 907 -120 58 -189 80 -326 105 -136 24 -202 24 -335
0z m373 -280 c181 -51 354 -176 461 -333 44 -64 97 -178 122 -262 29 -97 37
-301 16 -410 -63 -333 -303 -594 -621 -675 -108 -27 -273 -27 -382 0 -315 79
-552 336 -620 670 -20 102 -15 302 11 400 87 327 347 571 673 630 76 14 258 4
340 -20z m-2478 -7 c246 -51 475 -247 579 -498 51 -121 65 -195 65 -345 0
-150 -14 -224 -65 -346 -94 -226 -294 -412 -519 -483 -436 -138 -899 125
-1032 586 -20 67 -23 101 -23 243 0 142 3 176 23 243 79 274 279 490 536 578
142 49 274 56 436 22z"/>
</g>
</svg>
